<?xml version="1.0" encoding="utf-8"?>
<!-- Generator: Adobe Illustrator 23.0.1, SVG Export Plug-In . SVG Version: 6.00 Build 0)  -->
<svg version="1.1" id="Capa_1" xmlns="http://www.w3.org/2000/svg" xmlns:xlink="http://www.w3.org/1999/xlink" x="0px" y="0px"
	 viewBox="0 0 174.9 79.3" style="enable-background:new 0 0 174.9 79.3;" xml:space="preserve">
<style type="text/css">
	.st0{fill:#F54359;}
</style>
<g>
	<g>
		<g>
			<g>
				<path class="st0" d="M5.3,56.3c0,11.4,9.3,20.6,20.6,20.6v-6.4c-7.8,0-14.2-6.4-14.2-14.2s6.4-14.2,14.2-14.2v-6.4
					C14.6,35.6,5.3,44.9,5.3,56.3z"/>
			</g>
			<g>
				<g>
					<path class="st0" d="M81.2,46.5c12.2,0,22.1-9.9,22.1-22.1c0-12.2-9.9-22.1-22.1-22.1s-22.1,9.9-22.1,22.1
						C59.1,36.6,69,46.5,81.2,46.5z M81.2,8.8c8.6,0,15.6,7,15.6,15.6c0,8.6-7,15.6-15.6,15.6s-15.6-7-15.6-15.6
						C65.5,15.9,72.5,8.8,81.2,8.8z"/>
				</g>
			</g>
			<g>
				<path class="st0" d="M47.7,76.9c2.7,0,5.3-0.7,7.8-1.7L53,69.2c-1.7,0.7-3.5,1.1-5.3,1.2V36.4h-6.4v40.5L47.7,76.9z"/>
			</g>
			<g>
				<path class="st0" d="M118.8,54.6c-12.3,0-22.4,10-22.4,22.4h6.5c0-8.7,7.1-15.8,15.8-15.8s15.8,7.1,15.8,15.8h6.5
					C141.2,64.6,131.2,54.6,118.8,54.6z"/>
			</g>
			<g>
				<path class="st0" d="M169.6,43.8v-6.4c-5.3,0-10.1,2.1-13.6,5.6v-6.6h-6.4v40.5h6.4v-6.6c3.5,3.5,8.3,5.6,13.6,5.6v-6.4
					c-7.1,0-12.9-5.8-12.9-12.9C156.8,49.6,162.5,43.8,169.6,43.8z"/>
			</g>
		</g>
	</g>
</g>
</svg>
